<svg width="188" height="73" viewBox="0 0 188 73" fill="none" xmlns="http://www.w3.org/2000/svg">
<path fill-rule="evenodd" clip-rule="evenodd" d="M135.28 1.75668C134.882 1.90441 134.825 2.03596 134.483 3.64286C134.365 4.19941 134.13 5.29227 133.964 6.07143C133.797 6.8506 133.566 7.99 133.453 8.60119C133.339 9.21238 133.07 10.5339 132.853 11.5357C131.551 17.5889 130.971 20.3615 130.809 21.3026C130.709 21.8895 130.582 22.442 130.525 22.531C130.47 22.6201 130.328 23.2353 130.212 23.8951C130.097 24.5548 129.817 25.9594 129.592 27.0178C129.367 28.0763 128.957 30.0333 128.682 31.369C128.408 32.7047 127.903 35.1171 127.562 36.7321C126.027 43.9874 125.796 45.8655 126.106 48.5936C126.323 50.5081 127.086 52.3741 128.329 53.8555C130.902 56.9236 135.286 57.4984 139.023 56.8912C140.057 56.7232 141.077 56.444 142.062 56.0938C144.327 55.2904 147.594 53.3921 148.995 52.0624L149.642 51.4492L150.293 51.9956C152.359 53.7321 155.427 54.5881 159.602 54.5922C161.948 54.5942 162.629 54.5173 164.367 54.0478C166.171 53.56 168.388 52.6311 169.073 52.0725C170.125 51.2144 169.432 54.6023 167.986 57.3871C166.885 59.508 165.064 60.9793 162.335 61.9548C160.875 62.4769 160.472 62.5316 158.184 62.5235C155.445 62.5134 153.709 62.1309 151.6 61.0704C150.137 60.3337 147.872 58.7309 146.957 57.7817C146.525 57.3344 146.077 56.9661 145.964 56.9661C145.444 56.9661 140.14 63.4403 140.14 64.0737C140.14 64.6303 141.949 66.5043 143.857 67.925C147.965 70.983 152.324 72.5676 156.649 72.5757C165.375 72.5939 173.078 68.4107 177.464 61.2728C179.276 58.3221 179.958 56.3104 181.211 50.1843C181.371 49.4052 181.637 48.1302 181.805 47.351C181.973 46.5718 182.245 45.2159 182.411 44.3355C182.577 43.4572 182.766 42.5728 182.829 42.3704C182.894 42.1701 183.026 41.567 183.125 41.0347C183.224 40.5004 183.437 39.4723 183.597 38.7478C184.295 35.6028 186.955 22.7354 187.385 20.4324C187.592 19.3193 187.821 18.2568 187.894 18.0706C187.967 17.8844 187.924 17.5424 187.801 17.3116C187.582 16.9028 187.432 16.8907 182.545 16.8907C176.728 16.8907 177.015 16.7915 176.669 18.9145C176.551 19.637 176.259 21.1407 176.02 22.2538C175.781 23.3669 175.46 24.9151 175.308 25.6943C175.154 26.4734 174.88 27.795 174.7 28.6288C174.365 30.1689 174.098 31.4783 173.518 34.3966C172.368 40.1928 170.79 42.7408 167.335 44.3861C165.863 45.0884 165.693 45.1228 163.663 45.1228C161.633 45.1228 161.469 45.0864 160.419 44.4954C157.748 42.9917 157.079 40.5591 158.063 35.9145C158.239 35.0807 158.531 33.668 158.71 32.7776C158.89 31.8871 159.162 30.5676 159.314 29.8431C160.062 26.3075 160.24 25.4312 160.926 21.9502C161.331 19.89 161.69 18.0605 161.725 17.8803C161.759 17.7002 161.702 17.4047 161.599 17.2226C161.435 16.9291 160.845 16.8907 156.493 16.8907C152.864 16.8907 151.491 16.9575 151.256 17.1437C151.045 17.3116 150.652 18.8356 150.094 21.6466C149.63 23.9841 149.068 26.7608 148.845 27.8193C148.452 29.6872 148.168 31.0573 147.561 33.9919C147.401 34.771 147.127 36.046 146.955 36.8252C146.485 38.9461 146.227 40.7493 146.225 41.9191C146.225 42.8946 146.154 43.0423 145.183 44.1008C143.788 45.6247 141.728 46.837 140.31 46.9685C139.045 47.0859 137.966 46.6386 137.561 45.8311C137.086 44.884 137.291 42.5606 138.214 38.4442C138.678 36.3739 139.092 34.3986 139.424 32.6764C139.584 31.8426 139.86 30.521 140.035 29.7419C140.209 28.9627 140.529 27.4145 140.744 26.3014C140.959 25.1883 141.28 23.6401 141.454 22.8609C141.776 21.42 143.427 13.4178 143.895 11.0217C144.633 7.25131 145.242 4.37751 145.418 3.82298C145.698 2.94263 145.663 2.00358 145.341 1.73644C145.039 1.48751 135.963 1.49763 135.282 1.74858M20.2533 2.40632C20.0586 2.55406 19.8984 2.89203 19.8964 3.15917C19.8964 3.42632 19.8072 3.96263 19.6977 4.35322C19.5882 4.74381 19.355 5.83667 19.1766 6.78179C18.9981 7.7269 18.7244 9.17595 18.5683 10.0037C18.3594 11.1026 18.3432 11.5782 18.5074 11.7745C18.6879 11.9931 21.0643 12.0437 31.0628 12.0437C39.1432 12.0437 43.4378 12.1145 43.5209 12.2481C43.675 12.497 43.4459 12.7824 39.8691 16.7936C38.3078 18.5441 36.8032 20.2583 36.5234 20.6003C36.0124 21.2277 35.246 22.0939 32.468 25.1843C31.6326 26.1152 30.7648 27.119 30.5417 27.4165C30.3187 27.714 29.5441 28.6267 28.8182 29.4423C23.6983 35.2122 22.4857 36.5297 22.3093 36.5297C22.1998 36.5297 21.2225 36.3132 20.1397 36.0501C17.2442 35.3438 16.7778 35.281 14.4318 35.2871C10.4879 35.2952 7.77085 35.9914 5.145 37.6671C0.925391 40.3608 -0.986715 45.5781 0.499577 50.3462C1.47084 53.4609 4.7861 56.1546 8.42173 56.7819C9.75392 57.0106 12.4852 56.9519 14.298 56.6544C17.2077 56.1768 20.7805 54.0397 24.2235 50.7166C24.9859 49.9819 25.7077 49.4092 25.8314 49.4436C25.9531 49.478 26.6993 49.8828 27.488 50.3422C34.4329 54.3918 39.8731 56.6362 44.4253 57.3284C45.6317 57.5125 47.7993 57.6522 49.4012 57.6501C51.804 57.6481 52.5786 57.5631 54.4522 57.0976C56.78 56.5188 58.9333 55.6142 60.4399 54.5861L61.3402 53.9688L62.4676 54.831C63.9052 55.9319 64.6332 56.2537 66.8575 56.7738C69.7206 57.4437 73.7172 56.9155 75.8179 55.5879C76.0734 55.426 76.3187 55.3329 76.3653 55.3815C76.4546 55.4705 76.1869 57.0794 75.4468 60.9166C75.2116 62.141 74.8953 63.7803 74.7452 64.5594C74.1146 67.8339 73.8267 69.2587 73.6462 70.0095C73.2711 71.5658 73.1839 71.5415 78.8797 71.5415C84.5754 71.5415 84.4274 71.6468 84.7822 69.4287C84.9059 68.6597 85.0418 67.9716 85.0884 67.8987C85.133 67.8258 85.2628 67.2268 85.3764 66.567C85.4899 65.9073 85.8671 64.0008 86.2138 62.3312C86.5605 60.6616 86.9661 58.658 87.1161 57.8788C87.2662 57.0997 87.5419 55.6871 87.7285 54.7419C87.915 53.7968 88.1158 52.7707 88.1725 52.4652C88.3104 51.7224 88.6186 51.7629 89.4581 52.6372C91.3296 54.5861 94.1664 56.106 97.1532 56.7556C99.558 57.2798 101.626 57.2818 104.317 56.7637C108.342 55.9886 110.893 54.8209 114.289 52.2021C118.515 48.9437 121.826 43.4653 122.722 38.2479C123.039 36.4063 123.039 31.8891 122.722 30.4138C121.431 24.3889 118.101 19.9102 113.273 17.6982C111.142 16.7227 107.61 16.0367 105.505 16.1905C101.78 16.4616 98.1629 17.8945 94.797 20.4324C94.3509 20.7703 94.3205 20.4647 94.6672 19.0461C95.1883 16.9028 95.4438 17.0081 89.6081 16.9453C85.3825 16.8988 84.6018 16.9372 84.3848 17.1963C84.1435 17.4877 83.8394 18.7566 83.2737 21.8571C83.1317 22.6363 82.6735 24.9131 82.2558 26.9166C81.5663 30.2276 81.2338 31.877 80.7269 34.5059C80.6296 35.0078 80.3578 36.2808 80.1226 37.3392C79.8874 38.3977 79.6157 39.7172 79.5204 40.2738C79.1635 42.3401 78.8229 43.3115 78.2126 43.9895C77.0203 45.3151 76.3653 45.8514 75.3049 46.3755C74.4228 46.8106 74.0396 46.8855 73.0906 46.8066C72.1194 46.7256 71.8558 46.6123 71.3691 46.0699C70.4202 45.0095 70.5256 43.7304 72.2856 35.113C72.456 34.2792 72.7398 32.8201 72.9163 31.875C73.0927 30.9298 73.2853 29.9989 73.3441 29.8107C73.4029 29.6204 73.5286 29.0295 73.6219 28.4952C73.8976 26.9166 74.8344 22.359 75.1528 21.0476C75.315 20.3797 75.4732 19.1958 75.5036 18.4166L75.5604 17L70.4688 16.9453C66.0728 16.8988 65.3408 16.9332 65.1158 17.2044C64.8663 17.5059 64.2378 20.2988 62.8184 27.4206C62.6521 28.2544 62.2243 30.3045 61.8674 31.9741C61.5105 33.6438 61.1496 35.3741 61.0665 35.8194C60.9833 36.2646 60.6244 38.0334 60.2676 39.7516C59.5477 43.2265 59.2558 43.781 57.4552 45.0965C53.3471 48.0958 48.7828 48.4803 42.7362 46.3391C41.0958 45.7583 34.1388 42.3057 33.3622 41.6884L32.8492 41.2796L34.4349 39.442C35.8887 37.7561 44.5976 27.9204 45.2647 27.2121C46.4043 25.9978 59.9208 10.5906 60.0993 10.3032C60.1723 10.1858 60.4764 8.43321 60.7745 6.41143C61.2145 3.43846 61.2692 2.67751 61.0644 2.42858C60.8414 2.15941 58.396 2.12299 40.7106 2.12906C24.3188 2.13513 20.5453 2.18572 20.2553 2.40429M105.789 26.8923C107.835 27.5359 109.563 29.1469 110.7 31.4702C111.387 32.8747 111.448 33.15 111.517 35.1394C111.598 37.493 111.333 38.8045 110.39 40.6704C109.936 41.571 109.009 42.9027 108.409 43.522C107.989 43.9551 105.949 45.4001 105.284 45.736C101.35 47.7214 96.3177 47.2012 93.6453 44.5339C91.9177 42.8096 91.0721 40.6421 91.0762 37.9484C91.0802 35.7769 91.3073 34.7852 92.238 32.901C94.0427 29.244 97.5202 26.781 101.34 26.4572C103.263 26.2933 104.159 26.3823 105.787 26.8944M15.7356 43.9085C16.4007 44.1635 16.0418 44.6796 15.7194 45.0864C14.6082 46.4848 12.8015 47.8225 10.9888 48.0998C9.47816 48.3305 8.03445 47.6606 8.60625 45.9445C8.85769 45.1936 9.48221 44.6108 10.1899 44.2546C11.7512 43.4693 14.0932 43.2791 15.7356 43.9065" fill="#F7F5F2"/>
<path d="M70.7527 13.7659C74.5614 13.7659 77.6489 10.6843 77.6489 6.88296C77.6489 3.08161 74.5614 0 70.7527 0C66.9441 0 63.8566 3.08161 63.8566 6.88296C63.8566 10.6843 66.9441 13.7659 70.7527 13.7659Z" fill="#F7F5F2"/>
</svg>
